<svg width="123" height="44" viewBox="0 0 123 44" fill="none" role="presentation" xmlns="http://www.w3.org/2000/svg">
    <g clip-path="url(#clip0_4433_337019)">
        <path d="M113.205 0H9.8c-.376 0-.749 0-1.125.002-.314.003-.627.009-.944.014-.69.009-1.38.074-2.06.195A6.543 6.543 0 0 0 3.717.9a6.657 6.657 0 0 0-1.664 1.296c-.49.52-.9 1.123-1.21 1.783A7.623 7.623 0 0 0 .2 6.074a15.269 15.269 0 0 0-.184 2.202c-.01.337-.011.676-.016 1.013v25.425c.005.342.006.673.016 1.015.008.738.07 1.474.184 2.202.113.729.33 1.435.642 2.094.312.658.72 1.258 1.211 1.776a6.49 6.49 0 0 0 1.664 1.297 6.583 6.583 0 0 0 1.954.694c.681.12 1.37.184 2.06.194.317.008.63.012.944.012C9.051 44 9.424 44 9.8 44h103.405c.37 0 .745 0 1.114-.002.313 0 .635-.005.948-.012.688-.01 1.376-.074 2.055-.194a6.679 6.679 0 0 0 1.962-.694 6.485 6.485 0 0 0 1.662-1.297c.489-.52.899-1.12 1.214-1.776.312-.66.526-1.365.637-2.094a15.91 15.91 0 0 0 .191-2.202c.004-.342.004-.673.004-1.014.008-.4.008-.798.008-1.204V10.49c0-.403 0-.803-.008-1.201 0-.337 0-.676-.004-1.013a15.91 15.91 0 0 0-.191-2.202 7.624 7.624 0 0 0-.637-2.094A6.89 6.89 0 0 0 119.284.9a6.638 6.638 0 0 0-1.962-.69 12.547 12.547 0 0 0-2.055-.194c-.313-.005-.635-.012-.948-.014C113.95 0 113.575 0 113.205 0Z"
              fill="#F5F5F6"></path>
        <path d="M8.77 42.998c-.313 0-.618-.005-.928-.012a12.178 12.178 0 0 1-1.918-.179 5.768 5.768 0 0 1-1.7-.602A5.58 5.58 0 0 1 2.79 41.09a5.84 5.84 0 0 1-1.047-1.533 6.594 6.594 0 0 1-.557-1.82 14.56 14.56 0 0 1-.171-2.058C1.009 35.446 1 34.675 1 34.675V9.311s.01-.76.015-.982a14.51 14.51 0 0 1 .17-2.056c.098-.635.286-1.25.558-1.825a5.902 5.902 0 0 1 1.041-1.535 5.746 5.746 0 0 1 1.44-1.122 5.707 5.707 0 0 1 1.696-.597c.636-.112 1.28-.172 1.924-.18L8.77 1h105.455l.937.014c.639.008 1.276.068 1.907.178a5.814 5.814 0 0 1 1.714.602 5.96 5.96 0 0 1 2.478 2.657c.267.57.452 1.18.549 1.81.107.686.167 1.378.179 2.073.003.31.003.645.003.977.008.412.008.804.008 1.199v22.979c0 .399 0 .788-.008 1.18 0 .358 0 .685-.004 1.021a14.902 14.902 0 0 1-.176 2.035 6.639 6.639 0 0 1-.553 1.834 6.03 6.03 0 0 1-1.043 1.522 5.568 5.568 0 0 1-1.436 1.122 5.752 5.752 0 0 1-1.711.604c-.635.11-1.276.17-1.918.179-.301.008-.616.012-.921.012l-1.113.002L8.77 42.998Z"
              fill="#000"></path>
        <path d="m37.061 28.548-.028-.171a13.886 13.886 0 0 0-1.413-4.194 14.17 14.17 0 0 0-5.1-5.462c.006-.008.01-.018.016-.027l.857-1.465a6699.801 6699.801 0 0 1 1.437-2.46 1.278 1.278 0 0 0-.009-1.31 1.283 1.283 0 0 0-.45-.445 1.317 1.317 0 0 0-.999-.138 1.299 1.299 0 0 0-.79.599l-.6 1.028-.838 1.431-.856 1.466-.094.16-.13-.05a14.287 14.287 0 0 0-5.063-.92h-.146a14.299 14.299 0 0 0-5.02.96c-.03-.05-.06-.1-.088-.15l-.856-1.465-.837-1.431-.601-1.028a1.299 1.299 0 0 0-1.236-.637 1.301 1.301 0 0 0-1.144.952 1.283 1.283 0 0 0 .131.979l.601 1.028.837 1.431.857 1.466.007.012a14.276 14.276 0 0 0-4.092 3.808 13.966 13.966 0 0 0-1.673 3.069 13.95 13.95 0 0 0-.773 2.794l-.027.171c-.032.205-.059.41-.082.618H37.14c-.022-.208-.05-.413-.08-.618l.001-.001Z"
              fill="#34A853"></path>
        <path d="M30.246 25.24c.544-.373.623-1.236.176-1.927-.445-.691-1.248-.95-1.79-.576-.544.373-.623 1.235-.177 1.927.446.69 1.248.949 1.791.576ZM17.678 24.664c.473-.692.389-1.554-.187-1.927-.575-.373-1.424-.115-1.896.576-.472.692-.388 1.554.186 1.927.576.373 1.425.115 1.897-.576Z"
              fill="#202124"></path>
        <path d="M49.392 19.497c1.312 0 2.402.679 2.92 1.41v-1.23h2.001v9.132h-1.44a.568.568 0 0 1-.57-.573v-.657C51.793 28.32 50.703 29 49.391 29 46.894 29 45 26.858 45 24.248c0-2.609 1.894-4.751 4.392-4.751Zm.36 1.824c-1.62 0-2.72 1.284-2.72 2.927 0 1.644 1.09 2.928 2.72 2.928 1.619 0 2.72-1.284 2.72-2.927 0-1.644-1.09-2.928-2.72-2.928Zm6.836-1.644H58.6v1.241c.55-.912 1.588-1.421 2.773-1.421 2.116 0 3.481 1.495 3.481 3.818v5.494h-1.439a.568.568 0 0 1-.571-.573v-4.592c0-1.442-.73-2.323-1.895-2.323-1.333 0-2.349 1.04-2.349 2.991v4.497h-1.44a.568.568 0 0 1-.57-.573v-8.559Zm14.245-.18c1.312 0 2.402.679 2.92 1.41v-5.79h2V28.82h-1.438a.567.567 0 0 1-.572-.573v-.658c-.508.732-1.608 1.411-2.92 1.411-2.498 0-4.393-2.142-4.393-4.752.011-2.609 1.905-4.751 4.403-4.751Zm.36 1.824c-1.62 0-2.72 1.284-2.72 2.927 0 1.644 1.09 2.928 2.72 2.928 1.619 0 2.72-1.284 2.72-2.927 0-1.644-1.101-2.928-2.72-2.928Zm6.836-1.644h2V21.3a2.573 2.573 0 0 1 2.403-1.718c.263 0 .525.024.783.074v2.068a3.23 3.23 0 0 0-1.005-.17c-1.154 0-2.191.966-2.191 2.8v4.455h-1.44a.568.568 0 0 1-.57-.573v-8.559h.02ZM88.633 29c-2.698 0-4.773-2.1-4.773-4.752 0-2.651 2.075-4.751 4.773-4.751 2.699 0 4.773 2.1 4.773 4.752 0 2.651-2.074 4.751-4.773 4.751Zm0-1.867c1.609 0 2.73-1.262 2.73-2.884 0-1.623-1.132-2.885-2.73-2.885-1.619 0-2.751 1.262-2.751 2.884 0 1.623 1.132 2.885 2.751 2.885Zm7.398-9.45a1.351 1.351 0 0 1-1.344-1.347A1.362 1.362 0 0 1 96.03 15a1.337 1.337 0 0 1 1.338 1.342 1.343 1.343 0 0 1-1.338 1.341Zm-.995 1.994h2v9.132h-1.429a.567.567 0 0 1-.571-.573v-8.559Zm8.043-.18c1.312 0 2.402.679 2.921 1.41v-5.79h2V28.82h-1.439a.566.566 0 0 1-.529-.354.589.589 0 0 1-.043-.219v-.658c-.508.732-1.608 1.411-2.921 1.411-2.497 0-4.391-2.142-4.391-4.752.01-2.609 1.904-4.751 4.402-4.751Zm.37 1.824c-1.619 0-2.719 1.284-2.719 2.927 0 1.644 1.09 2.928 2.719 2.928 1.62 0 2.72-1.284 2.72-2.927 0-1.644-1.1-2.928-2.72-2.928Z"
              fill="#fff"></path>
    </g>
    <defs>
        <clipPath id="clip0_4433_337019">
            <path fill="#fff" d="M0 0h123v44H0z"></path>
        </clipPath>
    </defs>
</svg>