<svg width="147" height="44" viewBox="0 0 147 44" fill="none" role="presentation" xmlns="http://www.w3.org/2000/svg">
    <g clip-path="url(#clip0_5851_3716)">
        <path fill="#100F0D"
              d="M139.55.4H6.75A6.35 6.35 0 0 0 .4 6.75v30.5c0 3.5 2.84 6.35 6.35 6.35h132.8c3.5 0 6.35-2.84 6.35-6.35V6.75c0-3.5-2.84-6.35-6.35-6.35Z"></path>
        <path fill="#fff"
              d="M49.94 27.6h3.84l-1.38-3.68a26.9 26.9 0 0 1-.56-1.69c-.16.55-.34 1.1-.54 1.67l-1.36 3.7Zm4.5 1.75h-5.15l-1.26 3.45h-2.27l5.05-12.87h2.14L58.1 32.8h-2.38l-1.3-3.45ZM64.79 30.46c.44-.6.67-1.48.67-2.63 0-1.07-.19-1.85-.56-2.33a1.77 1.77 0 0 0-1.48-.73c-.42 0-.82.1-1.18.3-.36.2-.7.47-1.03.81v5.14a4.08 4.08 0 0 0 1.63.35c.85 0 1.5-.3 1.95-.91Zm-5.77-4.9c0-.7-.03-1.49-.07-2.34H61c.07.4.13.8.16 1.21a3.88 3.88 0 0 1 2.93-1.39c.64 0 1.23.16 1.77.48.55.33.99.84 1.32 1.53.34.7.5 1.58.5 2.65 0 1.12-.19 2.08-.57 2.87a4.1 4.1 0 0 1-1.6 1.8c-.69.41-1.48.62-2.38.62-.65 0-1.3-.11-1.93-.33v3.96l-2.2.18V25.56ZM74.8 30.46c.44-.6.66-1.48.66-2.63 0-1.07-.18-1.85-.55-2.33a1.77 1.77 0 0 0-1.48-.73c-.43 0-.82.1-1.18.3-.36.2-.7.47-1.03.81v5.14a4.08 4.08 0 0 0 1.63.35c.85 0 1.5-.3 1.94-.91Zm-5.78-4.9c0-.7-.02-1.49-.07-2.34h2.06c.08.4.13.8.16 1.21a3.88 3.88 0 0 1 2.93-1.39c.64 0 1.23.16 1.78.48.54.33.98.84 1.32 1.53.33.7.5 1.58.5 2.65 0 1.12-.2 2.08-.57 2.87a4.1 4.1 0 0 1-1.6 1.8c-.7.41-1.49.62-2.39.62-.65 0-1.29-.11-1.92-.33v3.96l-2.2.18V25.56ZM81.73 32.2a5.32 5.32 0 0 1-2.19-2.26 7.4 7.4 0 0 1-.76-3.46c0-1.45.3-2.67.88-3.68.59-1.01 1.38-1.77 2.4-2.28a7.47 7.47 0 0 1 3.39-.76 8.97 8.97 0 0 1 4 .92l-.56 1.69a7.76 7.76 0 0 0-3.34-.84c-.9 0-1.68.2-2.35.57a3.9 3.9 0 0 0-1.57 1.69 5.9 5.9 0 0 0-.56 2.68c0 .92.15 1.73.43 2.44a3.6 3.6 0 0 0 1.36 1.69c.62.41 1.4.62 2.34.62a7.77 7.77 0 0 0 2.48-.42v-2.6H84.7v-1.7h5.11v5.41a11.41 11.41 0 0 1-4.72 1.07c-1.3 0-2.41-.26-3.36-.79ZM96.3 31.02c.45-.21.82-.49 1.11-.81v-1.78c-.6-.06-1.09-.1-1.46-.1-.91 0-1.54.15-1.88.44-.35.3-.52.7-.52 1.19 0 .47.12.82.38 1.05.25.23.59.34 1.02.34.44 0 .89-.1 1.34-.33Zm1.3 1.78c-.07-.37-.12-.8-.15-1.27-.33.4-.77.74-1.31 1.03a3.92 3.92 0 0 1-3.34.1 2.5 2.5 0 0 1-1.08-.98 3 3 0 0 1-.4-1.6c0-.93.33-1.67 1-2.22.67-.56 1.79-.83 3.35-.83.59 0 1.17.04 1.74.12v-.18c0-.85-.18-1.45-.54-1.8-.36-.34-.88-.51-1.56-.51a7.9 7.9 0 0 0-2.9.7l-.35-1.6a8.97 8.97 0 0 1 3.57-.71c.83 0 1.54.12 2.12.37.58.25 1.03.68 1.36 1.3.32.6.48 1.43.48 2.47v3.8c0 .4.03 1 .08 1.81H97.6ZM101.28 30.5V19.18l2.18-.18v11.1c0 .42.07.7.21.88.14.16.36.25.66.25.14 0 .33-.03.58-.1l.26 1.57a5.13 5.13 0 0 1-1.6.28c-1.53 0-2.3-.83-2.3-2.48ZM106.74 30.5V19.18l2.18-.18v11.1c0 .42.07.7.21.88.14.16.36.25.66.25.14 0 .33-.03.58-.1l.26 1.57a5.15 5.15 0 0 1-1.6.28c-1.53 0-2.3-.83-2.3-2.48ZM117.47 26.9a2.75 2.75 0 0 0-.57-1.72c-.35-.39-.8-.58-1.38-.58-.56 0-1.02.2-1.39.58-.37.39-.61.96-.72 1.71h4.06Zm2.14 1.39h-6.27c.1 2 1.06 3 2.87 3 .45 0 .91-.05 1.39-.15.47-.11.92-.26 1.35-.44l.48 1.5a8.16 8.16 0 0 1-3.62.78c-1.02 0-1.87-.2-2.57-.58a3.7 3.7 0 0 1-1.58-1.66 5.92 5.92 0 0 1-.53-2.61c0-1.06.19-1.97.56-2.74a4.07 4.07 0 0 1 3.87-2.35c.9 0 1.66.21 2.26.64.61.42 1.06.98 1.35 1.69a6 6 0 0 1 .44 2.33v.59ZM121.27 25.62c0-.52-.02-1.32-.07-2.4h2.05a27.71 27.71 0 0 1 .17 1.85c.25-.42.5-.77.75-1.06.25-.28.53-.52.86-.7.33-.18.7-.27 1.13-.27.33 0 .62.04.87.1l-.28 1.9c-.21-.06-.45-.09-.71-.09-.51 0-.97.13-1.35.4-.38.26-.8.7-1.23 1.3v6.15h-2.19v-7.18ZM128.26 36.72a5.25 5.25 0 0 1-.8-.19l.4-1.6a5.59 5.59 0 0 0 1.2.18c.98 0 1.7-.63 2.19-1.87l.14-.36-3.53-9.66h2.35l1.78 5.4c.29.92.47 1.63.56 2.12.16-.7.36-1.39.58-2.08l1.8-5.44h2.22l-3.53 9.7c-.33.92-.69 1.66-1.07 2.22-.39.57-.84.98-1.37 1.26-.52.27-1.15.4-1.9.4a5.9 5.9 0 0 1-1.02-.08Z"></path>
        <path fill="#C91C2E" fill-rule="evenodd" clip-rule="evenodd"
              d="M29.64 8.07H17.45c-5.74 0-7.84 2.1-7.84 7.84v12.18c0 5.74 2.1 7.84 7.84 7.84h12.18c5.74 0 7.85-2.1 7.85-7.84V15.91c0-5.74-2.1-7.84-7.84-7.84Z"></path>
        <path fill="#fff"
              d="M21.77 24.23h1.11l-.56-1.3-.55 1.3Zm-.28.66-.33.75h-.76L22.01 22h.65l1.6 3.64h-.77l-.33-.75h-1.67Zm12.15.75h.73V22h-.73v3.64Zm-2.9-1.56h1.34v-.67h-1.35v-.74h1.95V22H30v3.64h2.76v-.66h-2.03v-.9Zm-2.9.43L27 22h-.6l-.83 2.5-.8-2.5h-.8l1.28 3.64h.6l.84-2.4.82 2.4h.62L29.41 22h-.77l-.8 2.5Zm-8.55-.42c0 .59-.3.9-.83.9s-.83-.32-.83-.93V22h-.74v2.09c0 1.02.57 1.61 1.56 1.61 1 0 1.58-.6 1.58-1.64V22h-.74v2.09ZM15.13 22h.74v3.65h-.74v-1.48h-1.67v1.48h-.74V22h.74v1.47h1.67V22ZM23.54 17.36a4.64 4.64 0 0 1-4.64-4.64h.66a3.99 3.99 0 0 0 7.97 0h.65a4.64 4.64 0 0 1-4.64 4.64Z"></path>
        <path stroke="#fff" stroke-width=".8"
              d="M139.55.4H6.75A6.35 6.35 0 0 0 .4 6.75v30.5c0 3.5 2.84 6.35 6.35 6.35h132.8c3.5 0 6.35-2.84 6.35-6.35V6.75c0-3.5-2.84-6.35-6.35-6.35Z"></path>
        <path fill="#fff"
              d="M49.52 15.44c-.67 0-1.27-.15-1.81-.47a3.44 3.44 0 0 1-1.26-1.32 4 4 0 0 1-.45-1.9c0-.7.15-1.33.45-1.88a3.34 3.34 0 0 1 3.06-1.79c.73 0 1.37.2 1.93.55a3 3 0 0 1 1.22 1.47l-1.03.16a1.98 1.98 0 0 0-.85-.88 2.34 2.34 0 0 0-1.23-.32c-.46 0-.9.12-1.27.34a2.4 2.4 0 0 0-.87.97c-.2.4-.3.87-.3 1.4 0 .54.1 1.01.3 1.43.21.4.5.72.87.95.38.23.8.35 1.28.35s.9-.11 1.26-.32c.38-.22.66-.54.86-.93l1.03.16a3.2 3.2 0 0 1-1.25 1.5c-.58.38-1.22.56-1.94.56v-.03ZM58 15.34h-1.3l-1.94-2.18h-.31v2.18h-1v-5.25h1v2.12h.3l1.86-2.12h1.2l-2.25 2.54 2.46 2.7H58ZM60.38 9.99c.65 0 1.16.21 1.53.64.38.42.56 1 .56 1.77v2.94h-.7l-.24-.82c-.17.27-.4.49-.68.66a1.9 1.9 0 0 1-1.02.27c-.36 0-.67-.07-.95-.22-.28-.14-.5-.33-.65-.59a1.65 1.65 0 0 1-.24-.86c0-.5.2-.89.6-1.19.39-.3.96-.44 1.7-.44h1.19a1.53 1.53 0 0 0-.35-.96c-.2-.23-.47-.35-.81-.35-.26 0-.49.06-.68.19-.2.12-.35.28-.45.47l-.92-.15c.13-.42.4-.75.78-1 .39-.24.83-.36 1.32-.36Zm-.34 4.61c.42 0 .77-.14 1.03-.41.27-.3.4-.68.4-1.17v-.06h-1.15c-.88 0-1.32.26-1.32.8 0 .25.09.46.28.61.2.15.44.24.76.24v-.01ZM66.38 13.42a3.48 3.48 0 0 1-1.24.23c-.63 0-1.12-.18-1.45-.52-.34-.36-.51-.85-.51-1.5v-1.55h1v1.56c0 .75.36 1.12 1.08 1.12.44 0 .81-.07 1.12-.23v-2.45h1v5.25h-1v-1.91ZM70.6 9.99c.66 0 1.17.21 1.54.64.38.42.57 1 .57 1.77v2.94h-.72l-.23-.82c-.17.27-.4.49-.68.66a1.9 1.9 0 0 1-1.02.27c-.36 0-.67-.07-.95-.22-.28-.14-.5-.33-.65-.59a1.65 1.65 0 0 1-.24-.86c0-.5.2-.89.6-1.19.4-.3.96-.44 1.7-.44h1.19a1.53 1.53 0 0 0-.35-.96c-.2-.23-.47-.35-.81-.35-.26 0-.48.06-.68.19-.2.12-.35.28-.45.47l-.92-.15c.14-.42.4-.75.78-1 .39-.24.83-.36 1.32-.36Zm-.33 4.61c.42 0 .77-.14 1.03-.41.27-.3.4-.68.4-1.17v-.06h-1.15c-.88 0-1.32.26-1.32.8 0 .25.1.46.29.61.18.15.44.24.75.24v-.01ZM75.3 15.34h-1.48v-5.25h.97v4.13h.15l2.12-4.13h1.48v5.25h-.97v-4.12h-.15l-2.13 4.12Zm.9-5.94c-.45 0-.82-.11-1.12-.34-.28-.24-.46-.6-.51-1.06h.8c.04.22.13.38.26.5a.9.9 0 0 0 .56.16c.23 0 .42-.05.55-.16A.72.72 0 0 0 77 8h.82c-.06.47-.24.82-.55 1.06a1.7 1.7 0 0 1-1.08.34ZM81.99 15.34h-1V11h-1.82v-.91h4.63V11h-1.82v4.34ZM89.35 12.68l-.01.31h-4.33c.05.47.23.84.55 1.12.31.28.7.41 1.18.41.33 0 .63-.06.88-.2.26-.13.47-.3.6-.52l.93.16c-.2.47-.53.83-.98 1.1a2.98 2.98 0 0 1-2.9.04 2.48 2.48 0 0 1-.96-.97 2.86 2.86 0 0 1-.34-1.4c0-.53.12-1 .34-1.42.23-.42.55-.74.96-.97.4-.23.87-.35 1.39-.35A2.68 2.68 0 0 1 89 11.3c.23.4.35.86.35 1.37Zm-2.7-1.81c-.39 0-.74.12-1.02.35a1.7 1.7 0 0 0-.57.96h3.2a1.66 1.66 0 0 0-.56-.95 1.52 1.52 0 0 0-1.03-.36h-.01ZM93.82 15.34h-1.48v-5.25h.97v4.13h.15l2.12-4.13h1.48v5.25h-.97v-4.12h-.15l-2.12 4.12ZM101.08 12.65c.28.09.51.23.7.45.19.21.27.48.27.78 0 .29-.08.56-.25.8-.17.22-.42.41-.73.55-.31.14-.68.2-1.08.2-.56 0-1.04-.12-1.43-.38a1.9 1.9 0 0 1-.8-1.06l.92-.15c.22.49.65.73 1.29.73.35 0 .62-.07.8-.2a.66.66 0 0 0 .29-.56.59.59 0 0 0-.26-.5c-.17-.13-.44-.2-.82-.2h-.7v-.87h.7c.32 0 .57-.06.74-.19a.56.56 0 0 0 .26-.49.6.6 0 0 0-.28-.52 1.1 1.1 0 0 0-.68-.2c-.27 0-.5.06-.71.19-.21.13-.37.3-.48.52l-.92-.16c.15-.45.43-.8.8-1.05.4-.25.84-.37 1.34-.37.37 0 .7.07.98.2.3.12.53.3.7.54a1.28 1.28 0 0 1 0 1.51c-.15.2-.37.35-.64.43Z"></path>
    </g>
    <defs>
        <clipPath id="clip0_5851_3716">
            <path fill="#fff" d="M0 0h147v44H0z"></path>
        </clipPath>
    </defs>
</svg>