<svg width="36" height="36" viewBox="0 0 36 36" fill="none" xmlns="http://www.w3.org/2000/svg">
    <mask id="mask0_9_5885" style="mask-type:alpha" maskUnits="userSpaceOnUse" x="5" y="5" width="26" height="26">
        <path fill-rule="evenodd" clip-rule="evenodd"
              d="M21.25 28.8334H23.9584C25.155 28.8334 26.1251 27.8633 26.1251 26.6667V8.25004C26.1251 7.05342 25.155 6.08337 23.9584 6.08337H21.25C22.4466 6.08337 23.4167 7.05342 23.4167 8.25004V26.6667C23.4167 27.8633 22.4466 28.8334 21.25 28.8334Z"
              fill="black"/>
        <path d="M12.5835 6.08337H20.1668L19.5773 7.85187C19.2824 8.73661 18.4545 9.33337 17.5219 9.33337H15.2285C14.2959 9.33337 13.4679 8.73661 13.173 7.85187L12.5835 6.08337Z"
              fill="black"/>
        <path opacity="0.8"
              d="M14.1 25.0416C13.5615 25.0416 13.125 25.4781 13.125 26.0166C13.125 26.5551 13.5615 26.9916 14.1 26.9916H18.65C19.1885 26.9916 19.625 26.5551 19.625 26.0166C19.625 25.4781 19.1885 25.0416 18.65 25.0416H14.1Z"
              fill="black"/>
        <path fill-rule="evenodd" clip-rule="evenodd"
              d="M9.875 8.25004C9.875 7.05342 10.845 6.08337 12.0417 6.08337H12.5833L13.1728 7.85187C13.4677 8.73661 14.2957 9.33337 15.2283 9.33337H17.5217C18.4543 9.33337 19.2823 8.73661 19.5772 7.85187L20.1667 6.08337H21.25C22.4466 6.08337 23.4167 7.05342 23.4167 8.25004V26.6667C23.4167 27.8633 22.4466 28.8334 21.25 28.8334H9.875V8.25004ZM14.1 25.0417C13.5615 25.0417 13.125 25.4782 13.125 26.0167C13.125 26.5552 13.5615 26.9917 14.1 26.9917H18.65C19.1885 26.9917 19.625 26.5552 19.625 26.0167C19.625 25.4782 19.1885 25.0417 18.65 25.0417H14.1Z"
              fill="url(#paint0_linear_9_5885)"/>
    </mask>
    <g mask="url(#mask0_9_5885)">
        <path d="M5 5H31V31H5V5Z" fill="black" fill-opacity="0.7"/>
    </g>
    <defs>
        <linearGradient id="paint0_linear_9_5885" x1="10.8422" y1="6.08337" x2="23.3219" y2="28.8852"
                        gradientUnits="userSpaceOnUse">
            <stop stop-opacity="0.5"/>
            <stop offset="1" stop-opacity="0.3"/>
        </linearGradient>
    </defs>
</svg>
