<svg width="126" height="44" viewBox="0 0 126 44" fill="none" role="presentation" xmlns="http://www.w3.org/2000/svg">
    <g clip-path="url(#clip0_4433_337018)">
        <path fill="#F5F5F6"
              d="M115.97 0H8.89l-.97.02c-.7 0-1.41.07-2.11.2A6.81 6.81 0 0 0 .86 3.97a7.49 7.49 0 0 0-.66 2.1C.1 6.8.02 7.53.02 8.27l-.02 1v25.43c0 .35 0 .68.02 1.02 0 .74.07 1.47.18 2.2.12.73.34 1.44.66 2.1a6.82 6.82 0 0 0 4.95 3.76c.7.12 1.4.19 2.1.2h.98l1.15.01H117.11l.97-.01c.7-.01 1.4-.08 2.1-.2a6.95 6.95 0 0 0 3.72-1.99 7.04 7.04 0 0 0 1.9-3.87c.1-.73.17-1.46.19-2.2V34.7l.01-1.2V9.3l-.01-1.01c-.02-.74-.08-1.48-.2-2.2A6.96 6.96 0 0 0 122.2.9a6.91 6.91 0 0 0-2-.7c-.7-.12-1.4-.19-2.11-.2h-.97L115.97 0Z"></path>
        <path fill="#000"
              d="m8.93 43.04-.96-.01c-.65-.01-1.31-.07-1.96-.18a6 6 0 0 1-3.21-1.72c-.44-.45-.8-.97-1.08-1.54a6.5 6.5 0 0 1-.57-1.82c-.1-.69-.16-1.38-.17-2.07l-.02-1V9.29l.02-.99c0-.69.06-1.37.17-2.05A6.54 6.54 0 0 1 2.8 2.88 5.87 5.87 0 0 1 6 1.16c.66-.12 1.32-.18 1.98-.18l.95-.02H117l.95.02c.66 0 1.31.06 1.96.18.61.1 1.2.3 1.76.6a6.03 6.03 0 0 1 3.1 4.47 14.72 14.72 0 0 1 .18 3.06l.01 1.2v25.23c-.02.68-.08 1.36-.19 2.04a6 6 0 0 1-4.86 5.1c-.65.1-1.3.16-1.97.17H8.93Z"></path>
        <path fill="#fff" fill-rule="evenodd"
              d="M49.54 8.6c.1 1.38-.34 2.76-1.23 3.83a4.52 4.52 0 0 1-3.57 1.69 5.09 5.09 0 0 1 1.26-3.7 5.47 5.47 0 0 1 3.54-1.83Zm2.5 10.11a5.25 5.25 0 0 0 2.5 7.46 12.05 12.05 0 0 1-1.67 3.4c-.99 1.47-2.02 2.91-3.66 2.94-.79.02-1.31-.2-1.86-.44a4.88 4.88 0 0 0-4.32.02c-.52.21-1.03.43-1.73.45-1.57.06-2.76-1.57-3.79-3.02-2.04-2.98-3.63-8.4-1.5-12.08a5.85 5.85 0 0 1 4.94-3c.88-.02 1.73.32 2.48.62.57.23 1.08.44 1.5.44.36 0 .86-.2 1.44-.43.9-.36 2.02-.8 3.15-.68a5.6 5.6 0 0 1 4.4 2.37 5.45 5.45 0 0 0-1.89 1.95Z"
              clip-rule="evenodd"></path>
        <path fill="#fff"
              d="M62.13 29.77h2.34v-9.93h-2.34v9.93Zm1.16-11.23c.74 0 1.3-.56 1.3-1.27 0-.7-.56-1.27-1.3-1.27-.72 0-1.29.56-1.29 1.27 0 .7.57 1.27 1.3 1.27Zm8.96-2.51c-3.95 0-6.43 2.69-6.43 6.99 0 4.3 2.48 6.98 6.43 6.98 3.94 0 6.41-2.68 6.41-6.98 0-4.3-2.47-7-6.41-7Zm0 2.06c2.4 0 3.95 1.91 3.95 4.93 0 3-1.54 4.92-3.95 4.92-2.43 0-3.95-1.91-3.95-4.92 0-3.02 1.53-4.93 3.95-4.93Zm7.4 7.88c.1 2.5 2.15 4.03 5.26 4.03 3.28 0 5.34-1.61 5.34-4.18 0-2.01-1.16-3.15-3.91-3.78l-1.56-.35c-1.66-.4-2.35-.92-2.35-1.82 0-1.12 1.04-1.87 2.57-1.87 1.54 0 2.6.76 2.72 2.02h2.3c-.05-2.38-2.02-4-5-4-2.95 0-5.04 1.63-5.04 4.03 0 1.93 1.18 3.13 3.67 3.7l1.76.41c1.7.4 2.4.97 2.4 1.94 0 1.13-1.13 1.93-2.77 1.93-1.65 0-2.9-.81-3.05-2.06h-2.34Z"></path>
    </g>
    <defs>
        <clipPath id="clip0_4433_337018">
            <path fill="#fff" d="M0 0h126v44H0z"></path>
        </clipPath>
    </defs>
</svg>