<svg viewBox="0 0 24 24" xmlns="http://www.w3.org/2000/svg" focusable="false">
    <defs>
        <linearGradient id="dsId_cZnb5Jxa1l0_linear_11222_4958" x1="12" y1="1" x2="12" y2="22"
                        gradientUnits="userSpaceOnUse">
            <stop stop-color="currentColor"></stop>
            <stop offset="1" stop-opacity=".7" stop-color="currentColor"></stop>
        </linearGradient>
        <linearGradient id="dsId_cZnb5Jxa1l1_linear_11222_4958" x1="12" y1="1" x2="12" y2="22"
                        gradientUnits="userSpaceOnUse">
            <stop stop-color="currentColor"></stop>
            <stop offset="1" stop-opacity=".7" stop-color="currentColor"></stop>
        </linearGradient>
    </defs>
    <path fill-rule="evenodd" clip-rule="evenodd"
          d="M15.643 9.879a5.13 5.13 0 0 1-3.648 1.526 5.161 5.161 0 0 1-3.648-1.526 5.21 5.21 0 0 1-1.515-3.677c0-1.439.585-2.74 1.515-3.676A5.13 5.13 0 0 1 11.995 1c1.428 0 2.719.59 3.648 1.526a5.21 5.21 0 0 1 1.515 3.676 5.21 5.21 0 0 1-1.515 3.677Zm-3.648-6.052c-.637 0-1.222.26-1.652.693a2.432 2.432 0 0 0-.689 1.665c0 .642.259 1.231.689 1.665.413.433.998.694 1.652.694a2.32 2.32 0 0 0 1.652-.694c.43-.416.688-1.006.688-1.665 0-.642-.258-1.231-.688-1.665a2.262 2.262 0 0 0-1.652-.693Z"
          fill="url(#dsId_cZnb5Jxa1l0_linear_11222_4958)"></path>
    <path d="m17.433 11.421 1.514 2.082c.087.104.07.242-.068.329a10.437 10.437 0 0 1-4.303 2.116l3.201 5.688c.086.173-.017.364-.206.364h-3.132a.245.245 0 0 1-.224-.156l-2.237-5.03-2.237 5.03c-.035.104-.12.156-.224.156H6.385c-.172 0-.293-.208-.207-.364l3.201-5.688a10.653 10.653 0 0 1-4.302-2.116.264.264 0 0 1-.035-.33l1.515-2.08a.265.265 0 0 1 .361-.035c1.429 1.231 3.184 2.029 5.077 2.029 1.893 0 3.648-.798 5.077-2.03a.237.237 0 0 1 .361.036Z"
          fill="url(#dsId_cZnb5Jxa1l1_linear_11222_4958)"></path>
</svg>